<svg xmlns="http://www.w3.org/2000/svg" version="1.1" width="50" 
    height="50"  viewBox="-5.0 -10.0 110.0 135.0">
 <path d="m92.031 91.203c0 0.58984-0.48047 1.0664-1.0664 1.0664h-14.293c-0.58984 0-1.0664-0.48047-1.0664-1.0664l-0.003907-25.031c0-1.2617-2.5781-9.1211-3.7617-11.113-0.33984-0.57422-1.125-1.5703-2.4844-3.2852-1.3867-1.75-3.1133-3.9297-4.4844-5.8945-1.8281-2.6172-2.1445-3.6172-2.1992-3.9023 0.38672-0.70312 1.2188-1.2695 2.0469-1.3984 0.375-0.058594 0.89844-0.046875 1.2656 0.33203l12.492 12.844c-0.33594 4.8789 3.7148 8.9219 8.4375 8.6758l2.5547 2.6289c1.5898 1.6289 2.5625 2.7109 2.5625 4.2891zm-29.719-25.879c1.3086-1.9453 3.9453-5.8594 6.4727-9.8555l-3.0273-3.8594-5.8555 7.2148c-1.5273 1.8789-2.9453 3.3359-4.3086 4.4023-1.4844 1.5898-3.5938 2.582-5.9336 2.582-2.8125 0-5.3008-1.4414-6.7578-3.6211-0.87891-0.81641-1.7773-1.7969-2.7031-2.9336l-6-7.3711-3.0664 3.9141c2.4375 3.7891 4.9492 7.5 6.1992 9.3438 0.42969 0.63672 0.71094 1.0547 0.83984 1.25 1.1562 1.7656 3.5508 8.4414 3.5508 9.5625v15.637c0 0.36719 0.42188 0.69531 0.90234 0.69531h14.527c0.48047 0 0.90234-0.32422 0.90234-0.69531v-15.648c0-1.1211 2.3945-7.7969 3.5469-9.5625 0.11328-0.16797 0.36328-0.53516 0.71094-1.0547zm-37.75 0.84766v25.031c0 0.58984-0.48047 1.0664-1.0703 1.0664l-14.293 0.003907c-0.58984 0-1.0664-0.48047-1.0664-1.0664v-21.863c0-1.5781 0.97266-2.6602 2.5625-4.2891l2.5508-2.6211c0.039062 0 0.082031 0.003906 0.12109 0.003906 4.6367 0 8.3477-3.9141 8.1172-8.4766l12.699-13.055c0.36719-0.37891 0.89453-0.39062 1.2656-0.33203 0.83203 0.12891 1.6562 0.69531 2.0469 1.3984-0.054688 0.28516-0.37109 1.2852-2.1992 3.9023-1.3711 1.9648-3.0977 4.1445-4.4844 5.8945-1.3594 1.7148-2.1445 2.7148-2.4844 3.2852-1.1875 1.9961-3.7656 9.8555-3.7656 11.117zm-16.594-11.863c0 2.9766 2.4219 5.3984 5.3984 5.3984 2.9766 0 5.3984-2.4219 5.3984-5.3984 0-2.9766-2.4219-5.3984-5.3984-5.3984-2.9766 0-5.3984 2.4219-5.3984 5.3984zm8.2305-12.277h13.086l2.9453-3.0234c0.92188-0.94922 2.2148-1.3477 3.6367-1.125 1.7109 0.26563 3.3047 1.3984 4.0781 2.8906 0.21875 0.36328 0.31641 0.77734 0.28906 1.2617h3.5469v-8.5352h-1.4688c-2.8945 0-5.2539-2.3594-5.2539-5.2539 0-2.8984 2.3594-5.2539 5.2539-5.2539h1.4688v-8.543h-8.5352v1.4648c0 2.8984-2.3594 5.2539-5.2539 5.2539-2.8984 0-5.2578-2.3555-5.2578-5.2539v-1.4648h-8.5352zm33.461 10.246c2.9766 0 5.3984 2.4219 5.3984 5.3984 0 1.3438-0.49219 2.5742-1.3086 3.5195-1.4102 1.0625-2.6914 1.5742-3.9062 1.5742h-0.003906c-1.4961 0-3.0664-0.75391-4.8164-2.332-0.48438-0.80859-0.76172-1.7539-0.76172-2.7617 0-2.9766 2.4219-5.3984 5.3984-5.3984zm6.7266-10.246h3.5469c-0.027344-0.48438 0.070312-0.89844 0.28906-1.2617 0.77734-1.4922 2.3672-2.625 4.0781-2.8906 1.4258-0.22266 2.7188 0.17969 3.6406 1.125l2.9414 3.0234h13.086v-27.578h-9.8984c-0.75391 0-1.3633-0.60938-1.3633-1.3633v-2.832c0-1.3945-1.1328-2.5273-2.5273-2.5273-1.3945 0-2.5273 1.1328-2.5273 2.5273v2.832c0 0.75391-0.60938 1.3633-1.3633 1.3633h-9.8984v9.8984c0 0.75391-0.60938 1.3633-1.3633 1.3633h-2.8281c-1.3945 0-2.5273 1.1328-2.5273 2.5273s1.1328 2.5273 2.5273 2.5273h2.8281c0.75391 0 1.3633 0.60938 1.3633 1.3633zm30.195 6.8789c-2.9766 0-5.3984 2.4219-5.3984 5.3984 0 2.9766 2.4219 5.3984 5.3984 5.3984 2.9766 0 5.3984-2.4219 5.3984-5.3984 0-2.9766-2.4219-5.3984-5.3984-5.3984zm4.8398 14.242-1.4297-1.4688c2.7812-1.293 4.7148-4.1094 4.7148-7.3711 0-4.4805-3.6445-8.125-8.125-8.125-3.1836 0-5.9414 1.8398-7.2773 4.5117l-5.7734-5.9375 11.797-0.003907c0.75391 0 1.3633-0.60937 1.3633-1.3633l0.003906-30.309c0-0.75391-0.60937-1.3633-1.3633-1.3633h-9.8984v-1.4688c-0.003906-2.8984-2.3594-5.2539-5.2578-5.2539-2.8984 0-5.2539 2.3555-5.2539 5.2539v1.4688h-9.8984c-0.75391 0-1.3633 0.60938-1.3633 1.3633v9.8984h-1.4688c-2.8984 0-5.2539 2.3555-5.2539 5.2539 0 2.8984 2.3594 5.2539 5.2539 5.2539h1.4688v9.8984c0 0.75391 0.60938 1.3633 1.3633 1.3633h5.8945c0.67969 1.2188 1.7148 2.7266 3.1367 4.6211l-6.2812 7.7383c-0.28516-4.2227-3.8125-7.5703-8.1055-7.5703-4.1328 0-7.5547 3.1016-8.0586 7.1016l-5.6914-6.9961c1.5273-2.0273 2.6289-3.6172 3.3398-4.8984h5.8984c0.75391 0 1.3633-0.60938 1.3633-1.3633l-0.007812-11.254c0-0.75391-0.60938-1.3633-1.3633-1.3633h-2.832c-1.3945 0-2.5273-1.1328-2.5273-2.5273 0-1.3945 1.1328-2.5273 2.5273-2.5273h2.832c0.75391 0 1.3633-0.60938 1.3633-1.3633v-11.266c0-0.75391-0.60938-1.3633-1.3633-1.3633h-11.266c-0.75391 0-1.3633 0.60938-1.3633 1.3633v2.8281c0 1.3945-1.1328 2.5273-2.5273 2.5273-1.3945 0-2.5273-1.1367-2.5273-2.5273v-2.8281c0-0.75391-0.60938-1.3633-1.3633-1.3633h-11.266c-0.75391 0-1.3633 0.60938-1.3633 1.3633v30.309c0 0.75391 0.60938 1.3633 1.3633 1.3633h11.797l-5.918 6.082c-1.3047-2.75-4.1055-4.6562-7.3477-4.6562-4.4805 0-8.125 3.6445-8.125 8.125 0 3.3203 2.0039 6.1797 4.8633 7.4414l-1.3633 1.4023c-1.6406 1.6797-3.3359 3.4219-3.3359 6.1914v21.863c0 2.0898 1.7031 3.793 3.793 3.793h14.293c2.0938 0 3.7969-1.7031 3.7969-3.7969v-24.996c0.09375-0.80859 1.3516-4.8672 2.4141-7.6016 2.1641 3.3281 4.2617 6.4219 5.3711 8.0586 0.40625 0.60156 0.69922 1.0312 0.81641 1.2109 0.94141 1.4375 2.9453 7.125 3.1055 8.125v15.578c0 1.8867 1.6289 3.4219 3.6289 3.4219h14.527c2.0039 0 3.6289-1.5352 3.6289-3.4219v-15.578c0.16016-1 2.1641-6.6875 3.1055-8.125 0.10938-0.16797 0.34766-0.52344 0.6875-1.0312 1.1797-1.75 3.4297-5.0938 5.7148-8.668 1.0938 2.7188 2.4805 7.1758 2.5859 8.0273v24.996c0 2.0938 1.7031 3.7969 3.793 3.7969h14.297c2.0938 0 3.793-1.7031 3.793-3.7969v-21.855c0-2.7734-1.6953-4.5117-3.3359-6.1914z" fill-rule="evenodd"/>
</svg>