<svg xmlns="http://www.w3.org/2000/svg" xmlns:xlink="http://www.w3.org/1999/xlink" width="50" 
    height="50"  version="1.1" x="0px" y="0px" viewBox="0 0 100 125" enable-background="new 0 0 100 100" xml:space="preserve"><g><path d="M44.9,63l8-26.5l1.9-6.4c0.1-0.6,0.2-1.2,0.2-1.9c0-5.5-4.4-9.9-9.9-9.9c-3.3,0-6.4,1.6-8.2,4.4l0,0L17.9,49.8   c2.7-1.6,5.8-2.5,9.2-2.5C36.2,47.2,43.8,54.1,44.9,63z"/><path d="M27,53c-6.8,0-12.2,5.5-12.2,12.2S20.3,77.5,27,77.5S39.3,72,39.3,65.2S33.8,53,27,53z M27,77c-6.5,0-11.8-5.3-11.8-11.8   S20.5,53.5,27,53.5s11.8,5.3,11.8,11.8S33.5,77,27,77z"/><path d="M27,51c-7.9,0-14.2,6.4-14.2,14.2S19.2,79.5,27,79.5s14.2-6.4,14.2-14.2S34.9,51,27,51z M27,79c-7.6,0-13.8-6.2-13.8-13.8   S19.4,51.5,27,51.5s13.8,6.2,13.8,13.8S34.6,79,27,79z"/><path d="M27,55c-5.7,0-10.2,4.6-10.2,10.2S21.4,75.5,27,75.5s10.2-4.6,10.2-10.2S32.7,55,27,55z M27,75c-5.4,0-9.8-4.4-9.8-9.8   s4.4-9.8,9.8-9.8s9.8,4.4,9.8,9.8S32.4,75,27,75z"/><path d="M27,58.9c-3.5,0-6.3,2.8-6.3,6.3s2.8,6.3,6.3,6.3s6.3-2.8,6.3-6.3S30.5,58.9,27,58.9z"/><path d="M65.1,70.2c1.9-0.2,5.3-0.1,7.5,1.7l-1.3-35.7c-0.1-0.4-0.2-0.7-0.5-1c-0.8-0.9-2.6-1.1-4.8-1.1c-1,0-11.4,3.4-11.9,3.5   L44,71.2c-1,2.7-2.6,5.1-4.6,7.1c3.4-1.2,13.3-4.5,13.8-4.7C58.5,71.8,63.3,70.4,65.1,70.2z"/><path d="M42.9,69.6c0.4-1.4,0.6-2.8,0.6-4.4c0-9.1-7.4-16.5-16.5-16.5c-4.9,0-9.3,2.2-12.4,5.6l-2.2,3.1c-1.2,2.3-2,5-2,7.8   c0,9.1,7.4,16.5,16.5,16.5c7.3,0,13.4-4.7,15.6-11.3L42.9,69.6z M27,81c-8.7,0-15.8-7.1-15.8-15.8S18.3,49.5,27,49.5   s15.8,7.1,15.8,15.8S35.7,81,27,81z"/><path d="M82.8,41.5c-1.6,0-5.7,0-9.9,0c0,0,1.3,34,1.3,34.5c-0.1,1.5-0.7,2.6-1.6,3.2c-2,1.3-5.3,0.1-8.8-1.1   c-4.4-1.6-9-3.2-11-0.1c-0.3,0.5-0.4,0.9-0.3,1.2c0.9,1.6,8.4,1.5,10.9,1.5c6.3-0.1,22.1,0,26.1,0L82.8,41.5z"/><path d="M65.2,71.7c-1.7,0.1-6.7,1.7-12.2,3.5l-0.1,0.6c2.9-2,7.4-0.5,11.4,1c3,1.1,6.1,2.1,7.5,1.3c0.5-0.3,0.8-1,0.9-2.1   c0.1-1.1-0.2-2-0.9-2.6C70.6,72.1,68.2,71.5,65.2,71.7z"/><path d="M27,57c-4.5,0-8.2,3.7-8.2,8.2s3.7,8.2,8.2,8.2s8.2-3.7,8.2-8.2S31.6,57,27,57z M27,73c-4.3,0-7.8-3.5-7.8-7.8   s3.5-7.8,7.8-7.8s7.8,3.5,7.8,7.8S31.3,73,27,73z"/></g></svg>