<svg xmlns="http://www.w3.org/2000/svg" version="1.1" width="50" 
    height="50"  viewBox="-5.0 -10.0 110.0 135.0">
 <path d="m49.973 71.293c-16.168 0-29.352-13.18-29.352-29.41 0-16.168 13.18-29.352 29.352-29.352 16.227 0 29.41 13.18 29.41 29.352 0 16.227-13.18 29.41-29.41 29.41zm0-56.473c-14.879 0-27.008 12.125-27.008 27.066 0 14.879 12.125 27.008 27.008 27.008 14.938 0 27.066-12.125 27.066-27.008 0-14.879-12.125-27.066-27.066-27.066zm14.176 44.816h-28.355c-3.1641 0-5.8008-2.6953-5.8008-5.8008v-23.902c0-3.1055 2.6367-5.8008 5.8008-5.8008h28.355c3.1641 0 5.8008 2.6367 5.8008 5.8008v23.902c0 3.1641-2.6367 5.8008-5.8008 5.8008zm-28.355-33.156c-1.875 0-3.457 1.582-3.457 3.457v23.902c0 1.875 1.582 3.457 3.457 3.457h28.355c1.875 0 3.457-1.5234 3.457-3.457v-23.902c0-1.875-1.582-3.457-3.457-3.457z" fill-rule="evenodd"/>
 <path d="m26.422 58.582c-0.46875 0-0.87891-0.29297-1.1133-0.76172-0.23438-0.58594 0.058594-1.2891 0.64453-1.5234 1.582-0.58594 2.9297-1.2891 4.043-1.9922v-0.46875c0-0.64453 0.52734-1.1719 1.1719-1.1719s1.1719 0.52734 1.1719 1.1719c0 0.23437 0.058594 0.52734 0.058594 0.76172 0.11719 0.46875-0.058594 0.9375-0.46875 1.1719-1.4062 0.99609-3.0469 1.875-5.0977 2.6953-0.11719 0.058594-0.23438 0.11719-0.41016 0.11719zm4.7461-27.066c-0.23438 0-0.46875-0.058594-0.64453-0.17578-1.582-1.0547-3.3984-1.9336-5.2148-2.5781-0.64453-0.17578-0.99609-0.82031-0.76172-1.4648 0.17578-0.64453 0.82031-0.9375 1.4648-0.76172 2.0508 0.64453 4.043 1.6406 5.8008 2.8125 0.52734 0.41016 0.70312 1.1133 0.29297 1.6406-0.17578 0.35156-0.58594 0.52734-0.9375 0.52734z" fill-rule="evenodd"/>
 <path d="m70.062 42.18c-0.46875 0-0.99609 0-1.4648-0.058594-0.64453-0.11719-1.1133-0.70312-0.99609-1.3477 0.11719-0.64453 0.70313-1.0547 1.3477-0.99609 0.29297 0.058594 0.70312 0.058594 1.1133 0.058594 2.6367 0 5.2148-0.64453 7.4414-1.875 0.58594-0.29297 1.2891-0.058594 1.582 0.52734 0.29297 0.52734 0.11719 1.2891-0.46875 1.582-2.5781 1.4062-5.5664 2.1094-8.5547 2.1094zm-17.047-15.699c-0.64453 0-1.1719-0.52734-1.1719-1.1719v-1.1719c0-3.75 1.1719-7.3828 3.3984-10.426 0.35156-0.52734 1.1133-0.64453 1.6406-0.29297 0.52734 0.41016 0.64453 1.1133 0.23438 1.6406-1.9336 2.6953-2.9297 5.8008-2.9297 9.1406v1.1719c0 0.58594-0.52734 1.1133-1.1719 1.1133z" fill-rule="evenodd"/>
 <path d="m35.031 66.961c-0.11719 0-0.29297-0.058594-0.41016-0.11719-0.64453-0.23438-0.9375-0.87891-0.70312-1.5234 1.2305-3.1055 3.457-5.8008 6.3867-7.8516 0.52734-0.35156 1.2305-0.23438 1.582 0.29297 0.41016 0.52734 0.23438 1.2891-0.29297 1.6406-2.5195 1.7578-4.3945 4.1016-5.4492 6.7969-0.17578 0.46875-0.64453 0.76172-1.1133 0.76172zm30.402-0.29297c-0.46875 0-0.87891-0.29297-1.0547-0.70312-1.1133-2.5781-2.9883-4.8633-5.3906-6.5625-0.52734-0.35156-0.70312-1.0547-0.29297-1.6406 0.35156-0.52734 1.0547-0.64453 1.6406-0.29297 2.7539 1.9336 4.9219 4.5703 6.2109 7.5586 0.23438 0.58594-0.058594 1.2891-0.64453 1.5234-0.17578 0.058594-0.35156 0.11719-0.46875 0.11719z" fill-rule="evenodd"/>
 <path d="m50.965 28.707c12.184 11.07 12.594 18.746 8.7305 22.965-2.2852 2.5195-6.0938 3.75-9.8438 3.6328-3.75-0.058594-7.5586-1.3477-9.7852-3.9258-3.6914-4.3945-3.0469-12.008 9.375-22.672 0.46875-0.41016 1.1133-0.35156 1.5234 0zm7.0312 21.383c2.9297-3.2227 2.2852-9.4336-7.793-18.922-10.367 9.1406-11.188 15.289-8.3203 18.688 1.7578 2.0508 4.8633 3.1055 8.0273 3.1641 3.1055 0.058594 6.2695-0.9375 8.0859-2.9297z"/>
 <path d="m49.973 55.359c-0.64453 0-1.1133-0.52734-1.1719-1.1133l-0.87891-15.816c-0.058594-0.64453 0.46875-1.1719 1.1133-1.2305 0.64453-0.058594 1.1719 0.46875 1.2305 1.1133l0.87891 15.816c0.058594 0.64453-0.46875 1.1719-1.1133 1.2305h-0.058594z" fill-rule="evenodd"/>
 <path d="m49.68 50.32c-0.23438 0-0.41016-0.058593-0.58594-0.17578-0.58594-0.35156-0.76172-1.0547-0.41016-1.582l2.5195-4.1016c0.35156-0.58594 1.0547-0.76172 1.6406-0.41016 0.52734 0.35156 0.70312 1.0547 0.35156 1.6406l-2.5195 4.043c-0.23438 0.35156-0.58594 0.58594-0.99609 0.58594z" fill-rule="evenodd"/>
 <path d="m49.504 47.219c-0.35156 0-0.70312-0.11719-0.9375-0.46875l-2.8125-3.8086c-0.41016-0.52734-0.29297-1.2305 0.23438-1.6406 0.52734-0.35156 1.2891-0.23438 1.6406 0.29297l2.8125 3.8086c0.41016 0.52734 0.29297 1.2305-0.23438 1.6406-0.23438 0.11719-0.46875 0.17578-0.70312 0.17578z" fill-rule="evenodd"/>
 <path d="m49.328 44.055c-0.23438 0-0.41016-0.058594-0.58594-0.17578-0.58594-0.29297-0.76172-1.0547-0.41016-1.582l2.5195-4.1016c0.35156-0.58594 1.0547-0.76172 1.6406-0.41016 0.52734 0.35156 0.70312 1.0547 0.35156 1.6406l-2.5195 4.1016c-0.23438 0.35156-0.58594 0.52734-0.99609 0.52734z" fill-rule="evenodd"/>
 <path d="m64.148 59.637h-28.355c-3.1641 0-5.8008-2.6953-5.8008-5.8008v-23.902c0-3.1055 2.6367-5.8008 5.8008-5.8008h28.355c3.1641 0 5.8008 2.6367 5.8008 5.8008v23.902c0 3.1641-2.6367 5.8008-5.8008 5.8008zm-28.355-33.156c-1.875 0-3.457 1.582-3.457 3.457v23.902c0 1.875 1.582 3.457 3.457 3.457h28.355c1.875 0 3.457-1.5234 3.457-3.457v-23.902c0-1.875-1.582-3.457-3.457-3.457z" fill-rule="evenodd"/>
 <path d="m9.3164 86.645c-0.17578 0-0.29297-0.058593-0.46875-0.11719-0.29297-0.17578-0.52734-0.41016-0.58594-0.70312l-8.2031-22.613c-0.058594-0.29297-0.058594-0.64453 0.058594-0.9375 0.11719-0.23438 0.35156-0.46875 0.64453-0.58594l8.6133-3.0469c0.64453-0.23438 1.2891 0.11719 1.5234 0.70312l8.0859 22.613c0.23438 0.58594-0.11719 1.2891-0.70312 1.5234l-8.5547 3.1055c-0.11719 0-0.23437 0.058593-0.41016 0.058593zm-6.6211-23.141 7.3242 20.445 6.3867-2.2852-7.3242-20.445z" fill-rule="evenodd"/>
 <path d="m37.375 87.465c-2.8125 0-5.625-0.35156-8.6719-1.4648-2.1094-0.76172-5.9766-3.1055-9.375-5.2148-1.4648-0.87891-2.8125-1.6992-3.75-2.2266-0.52734-0.29297-0.76172-1.0547-0.41016-1.582 0.29297-0.58594 0.99609-0.76172 1.582-0.46875 0.99609 0.52734 2.3438 1.4062 3.75 2.2852 3.1641 1.9336 7.1484 4.3359 9.0234 5.0391 5.2148 1.875 9.9609 1.2891 14.996 0.70312 1.6992-0.17578 3.5156-0.41016 5.3906-0.52734 0.64453 0 1.2305 0.46875 1.2305 1.1133 0.058594 0.64453-0.41016 1.2305-1.0547 1.2305-1.8164 0.11719-3.5742 0.35156-5.2734 0.52734-2.5195 0.29297-4.9805 0.58594-7.4414 0.58594zm12.594-10.016h-0.058594c-5.4492-0.35156-9.4922-0.70312-11.246-1.582-2.9883-1.582-6.6797-4.9219-10.25-8.2031-1.4062-1.2305-2.6953-2.4609-3.9258-3.457-0.11719-0.058593-0.87891-0.41016-4.2773-0.11719-2.2266 0.17578-4.7461 0.52734-6.6211 0.82031-0.87891 0.11719-1.6406 0.23438-2.1094 0.29297-0.64453 0.058594-1.2305-0.41016-1.2891-1.0547-0.058594-0.64453 0.41016-1.2305 1.0547-1.2891 0.46875-0.058594 1.1719-0.11719 2.0508-0.29297 7.2656-1.0547 11.246-1.3477 12.652-0.17578h0.058593c1.2305 1.0547 2.5781 2.2852 3.9844 3.5742 3.3398 3.0469 7.0898 6.4453 9.7852 7.8516 1.6406 0.82031 7.7344 1.1719 10.309 1.2891 0.64453 0.058593 1.1133 0.58594 1.0547 1.2305-0.058594 0.58594-0.52734 1.1133-1.1719 1.1133z" fill-rule="evenodd"/>
 <path d="m35.617 80.727c-0.52734 0-1.0547-0.11719-1.5234-0.29297-3.5742-1.1719-10.074-6.5625-10.367-6.7969-0.46875-0.41016-0.52734-1.1719-0.11719-1.6406s1.1133-0.58594 1.6406-0.17578c0.058594 0.058594 6.3867 5.332 9.6094 6.4453 0.87891 0.29297 2.0508 0 2.7539-0.76172 0.46875-0.46875 0.87891-1.2305 0.46875-2.2852-0.23438-0.58594 0.11719-1.2891 0.70312-1.5234 0.58594-0.23437 1.2891 0.058594 1.5234 0.64453 0.64453 1.6992 0.23438 3.457-0.99609 4.8047-0.99609 0.99609-2.3438 1.582-3.6914 1.582z" fill-rule="evenodd"/>
 <path d="m90.684 86.645c-0.17578 0-0.29297-0.058593-0.41016-0.11719l-8.6133-3.1055c-0.58594-0.17578-0.9375-0.87891-0.70312-1.4648l8.1445-22.613c0.23438-0.64453 0.87891-0.9375 1.4648-0.70312l8.6133 3.0469c0.29297 0.058594 0.52734 0.29297 0.70312 0.58594 0.11719 0.29297 0.11719 0.58594 0 0.87891l-8.0859 22.672c-0.11719 0.29297-0.35156 0.52734-0.64453 0.70312-0.11719 0.058594-0.29297 0.11719-0.46875 0.11719zm-7.1484-4.9805 6.4453 2.2852 7.3242-20.445-6.3867-2.2852z" fill-rule="evenodd"/>
 <path d="m62.625 87.465c-2.4023 0-4.7461-0.29297-7.207-0.58594-2.6367-0.29297-5.3906-0.58594-8.3203-0.58594h-0.058594c-3.9258 0-5.9766-2.7539-6.1523-5.332-0.17578-2.4023 1.2305-5.0391 4.2773-5.4492 1.1719-0.17578 2.8125-0.29297 4.7461-0.41016 3.6914-0.23437 8.7891-0.58594 10.367-1.3477 2.6367-1.3477 6.0938-4.5117 9.4922-7.5586 1.5234-1.4062 2.9297-2.6953 4.2773-3.8672 1.4062-1.1719 5.3906-0.82031 12.711 0.23438 0.87891 0.11719 1.6406 0.23438 2.0508 0.29297 0.64453 0.058593 1.1133 0.64453 1.0547 1.2891-0.058593 0.64453-0.64453 1.0547-1.2891 0.99609-0.46875-0.058594-1.2305-0.11719-2.1094-0.29297-1.875-0.23438-4.3945-0.58594-6.6211-0.82031-3.3984-0.23438-4.1602 0.058594-4.2773 0.11719-1.3477 1.1133-2.7539 2.4023-4.2773 3.75-3.457 3.1641-7.0312 6.4453-9.9609 7.9102-1.9922 0.99609-6.9141 1.3477-11.246 1.6406-1.8164 0.11719-3.5156 0.23438-4.5703 0.35156-1.7578 0.23438-2.4023 1.6992-2.2852 2.9883 0.11719 1.582 1.3477 3.1641 3.8672 3.1641 3.1055 0 5.8594 0.29297 8.5547 0.58594 5.1562 0.58594 9.6094 1.0547 14.762-0.76172 1.9336-0.70313 5.918-3.1055 9.1406-5.0977 1.4648-0.87891 2.7539-1.6406 3.6914-2.2266 0.58594-0.29297 1.2891-0.11719 1.6406 0.46875 0.29297 0.58594 0.11719 1.2891-0.46875 1.582-0.9375 0.52734-2.2266 1.3477-3.6328 2.168-3.457 2.1094-7.3828 4.5117-9.5508 5.332-3.0469 1.1133-5.8594 1.4648-8.6133 1.4648zm12.945-23.316z" fill-rule="evenodd"/>
 <path d="m64.383 80.727c-1.3477 0-2.6953-0.58594-3.6914-1.582-1.2305-1.2891-1.6406-3.1055-0.99609-4.8047 0.23438-0.58594 0.9375-0.87891 1.5234-0.64453 0.64453 0.23438 0.9375 0.9375 0.70312 1.5234-0.41016 1.0547 0 1.8164 0.46875 2.2852 0.70312 0.76172 1.8164 1.0547 2.6953 0.76172 3.2227-1.1133 9.5508-6.3867 9.6094-6.4453 0.46875-0.41016 1.2305-0.35156 1.6406 0.17578 0.41016 0.46875 0.35156 1.2305-0.11719 1.6406-0.29297 0.23438-6.7383 5.625-10.309 6.8555-0.52734 0.11719-0.99609 0.23437-1.5234 0.23437z" fill-rule="evenodd"/>
</svg>