<svg xmlns="http://www.w3.org/2000/svg" xmlns:xlink="http://www.w3.org/1999/xlink" width="1280" zoomAndPan="magnify" viewBox="0 0 960 96.749999" height="129" preserveAspectRatio="xMidYMid meet" version="1.0">
  <defs>
    <clipPath id="8d3d530adc">
      <path d="M 1.238281 0 L 958.761719 0 L 958.761719 96.5 L 1.238281 96.5 Z M 1.238281 0" clip-rule="nonzero"/>
    </clipPath>
    <clipPath id="50f299d49e">
      <path d="M 1.238281 22 L 958.761719 22 L 958.761719 96.5 L 1.238281 96.5 Z M 1.238281 22" clip-rule="nonzero"/>
    </clipPath>
    <clipPath id="78ae367d42">
      <path d="M 1.238281 37 L 958.761719 37 L 958.761719 96.5 L 1.238281 96.5 Z M 1.238281 37" clip-rule="nonzero"/>
    </clipPath>
    <clipPath id="443f387990">
      <path d="M 1.238281 44 L 958.761719 44 L 958.761719 96.5 L 1.238281 96.5 Z M 1.238281 44" clip-rule="nonzero"/>
    </clipPath>
    <clipPath id="90757935b1">
      <path d="M 1.238281 67 L 958.761719 67 L 958.761719 96.5 L 1.238281 96.5 Z M 1.238281 67" clip-rule="nonzero"/>
    </clipPath>
  </defs>
  <g clip-path="url(#50f299d49e)">
    <path fill="#000000" d="M 1041.195312 61.328125 C 1006.417969 62.367188 989.070312 53.972656 963.9375 45.714844 C 942.898438 38.804688 921.785156 29.941406 900.316406 25.480469 C 888.558594 23.035156 876.691406 21.910156 864.675781 23.148438 C 860.117188 23.632812 855.613281 24.40625 851.160156 25.480469 C 824.027344 31.910156 798.824219 47.5625 771.210938 52.535156 C 720.171875 61.726562 669.476562 33.585938 618.605469 25.480469 C 603.210938 23.027344 587.800781 22.410156 572.359375 25.214844 C 571.894531 25.296875 571.429688 25.386719 570.960938 25.480469 C 538.632812 31.789062 509.589844 52.398438 476.84375 55.8125 C 425.472656 61.167969 377.15625 23.402344 325.613281 26.378906 C 286.265625 28.648438 250.785156 54.445312 211.441406 56.738281 C 160.1875 59.722656 111.886719 22.441406 60.890625 28.59375 C 24.097656 33.03125 -9.320312 59.78125 -45.414062 61.328125 L -45.414062 187.164062 L 1041.195312 187.164062 Z" fill-opacity="1" fill-rule="nonzero"/>
  </g>
  <g clip-path="url(#78ae367d42)">
    <path fill="#000000" d="M 1041.195312 49.375 L 1041.195312 144.734375 L -45.414062 144.734375 L -45.414062 49.375 C -35.867188 47.078125 -26.195312 45.574219 -16.402344 44.863281 C -6.605469 44.152344 3.179688 44.25 12.957031 45.148438 C 60.246094 49.625 108.144531 72.417969 151.929688 58.945312 C 163.59375 55.355469 173.574219 49.417969 185.152344 45.6875 C 242.300781 27.277344 306.675781 68.039062 368.527344 60.585938 C 399.617188 56.839844 426.015625 41.199219 457.183594 37.785156 C 515.660156 31.378906 566.394531 68.847656 625.234375 73.269531 C 680.707031 77.441406 732.574219 51.742188 788.300781 49.960938 C 844.289062 48.171875 897.28125 70.632812 953.324219 70.230469 C 983.375 70.015625 1007.886719 56.820312 1041.195312 49.375 Z" fill-opacity="1" fill-rule="nonzero"/>
  </g>
  <g clip-path="url(#443f387990)">
    <path fill="#ff0000" d="M 1041.195312 82.746094 C 1005.105469 81.199219 971.6875 54.449219 934.894531 50.011719 C 883.898438 43.863281 835.59375 81.144531 784.34375 78.160156 C 744.996094 75.867188 709.519531 50.070312 670.171875 47.796875 C 618.628906 44.824219 570.3125 82.589844 518.941406 77.230469 C 486.191406 73.816406 457.152344 53.207031 424.820312 46.898438 C 424.355469 46.808594 423.890625 46.71875 423.421875 46.632812 C 407.984375 43.828125 392.574219 44.445312 377.179688 46.898438 C 326.308594 55.007812 275.613281 83.144531 224.574219 73.957031 C 196.960938 68.984375 171.757812 53.328125 144.625 46.898438 C 140.171875 45.828125 135.664062 45.050781 131.109375 44.566406 C 119.089844 43.332031 107.226562 44.457031 95.464844 46.898438 C 74 51.359375 52.886719 60.222656 31.84375 67.132812 C 6.710938 75.390625 -10.632812 83.785156 -45.414062 82.746094 L -45.414062 232.148438 L 1041.195312 232.148438 Z" fill-opacity="1" fill-rule="nonzero"/>
  </g>
  <g clip-path="url(#90757935b1)">
    <path fill="#007d34" d="M 1041.195312 106.308594 C 1006.417969 107.347656 989.070312 98.953125 963.9375 90.695312 C 942.898438 83.785156 921.785156 74.925781 900.316406 70.460938 C 888.558594 68.015625 876.691406 66.894531 864.675781 68.128906 C 860.117188 68.613281 855.613281 69.390625 851.15625 70.460938 C 824.023438 76.890625 798.824219 92.546875 771.207031 97.515625 C 720.167969 106.707031 669.472656 78.566406 618.601562 70.460938 C 603.210938 68.007812 587.800781 67.390625 572.359375 70.195312 C 571.894531 70.28125 571.425781 70.367188 570.960938 70.460938 C 538.628906 76.769531 509.589844 97.378906 476.839844 100.792969 C 425.472656 106.152344 377.15625 68.382812 325.613281 71.359375 C 286.265625 73.628906 250.785156 99.429688 211.441406 101.71875 C 160.1875 104.703125 111.886719 67.425781 60.890625 73.574219 C 24.097656 78.007812 -9.320312 104.761719 -45.414062 106.308594 L -45.414062 232.148438 L 1041.195312 232.148438 Z" fill-opacity="1" fill-rule="nonzero"/>
  </g>
</svg>
